PathFileType	3	(X/Y/Z)	D:\minhoCalibration\240510\subject1_KPNP\preferred\preferred05.trc
DataRate	CameraRate	NumFrames	NumMarkers	Units	OrigDataRate	OrigDataStartFrame	OrigNumFrames
200.0	200.0	30	10	mm	200.0	334	162	
Frame#	Time	Left_Ankle_Outer1			Left_Ankle_Inner1			Left_Knee_Outer1			Left_Knee_Inner1			Left_Wrist1			Right_Wrist1			Right_Knee_Inner1			Right_Knee_Outer1			Right_Ankle_Inner1			Right_Ankle_Outer1			
		X1	Y1	Z1	X2	Y2	Z2	X3	Y3	Z3	X4	Y4	Z4	X5	Y5	Z5	X6	Y6	Z6	X7	Y7	Z7	X8	Y8	Z8	X9	Y9	Z9	X10	Y10	Z10	
334	1.66	-471.76486	135.33238	-579.43744	-527.87366	138.02722	-558.60284	-473.26636	584.4126	-464.52032	-578.33118	534.10034	-481.82193	-535.80328	977.95245	-657.28741	-763.12408	979.21765	-930.26086	-731.54718	504.71759	-921.15747	-766.94763	545.19012	-1018.4796	-657.15918	110.16459	-1094.7646	-697.867	116.15863	-1181.4998
335	1.665	-474.74948	135.53911	-579.97321	-530.21198	138.36655	-557.81561	-470.26163	584.13745	-462.58002	-576.39703	534.40875	-478.17746	-534.28589	976.68457	-655.95636	-761.91705	978.68939	-928.91864	-730.88806	504.16052	-920.13721	-766.5387	544.92139	-1017.5082	-656.83618	109.9223	-1094.446	-697.93927	115.7162	-1180.7336
336	1.67	-478.09375	135.60768	-580.32739	-532.79852	138.76816	-556.74646	-467.66467	583.64758	-460.43365	-574.4621	534.70868	-474.4267	-532.72894	975.36469	-654.51971	-760.70001	978.37946	-926.91577	-730.63568	503.57889	-918.81573	-766.08319	544.39856	-1016.0505	-656.5437	109.83835	-1094.1208	-697.8949	115.4426	-1180.4535
337	1.675	-481.60669	135.74086	-580.62109	-535.43738	139.06505	-555.66968	-465.17175	583.06506	-458.39911	-572.63446	534.96338	-470.67548	-531.19568	973.99042	-653.03949	-759.62994	977.59625	-924.76752	-730.21381	502.99478	-917.53772	-765.78516	544.04388	-1014.7884	-656.33649	109.60081	-1093.7869	-697.54108	115.74496	-1180.3099
338	1.68	-485.14978	135.8595	-580.8941	-538.17346	139.22653	-554.46008	-462.48505	582.19318	-456.57135	-570.86163	535.03448	-467.05194	-529.63184	972.55621	-651.57007	-758.58179	977.0921	-922.4964	-729.46448	502.5289	-916.53271	-765.56317	543.86072	-1013.6347	-656.14783	109.39363	-1093.5792	-697.64978	115.46045	-1179.6897
339	1.685	-488.80664	135.90715	-580.99677	-540.91644	139.38222	-552.85748	-460.18973	581.32666	-454.58441	-568.84448	535.13733	-463.18048	-528.04816	971.05432	-649.97296	-757.53577	976.66418	-920.16211	-729.7478	501.89835	-914.93768	-765.37488	543.48474	-1012.1653	-656.04016	109.21424	-1093.2599	-697.38806	115.78148	-1179.2625
340	1.69	-492.44067	135.93085	-580.93207	-543.39307	139.44826	-550.97339	-458.24203	580.41998	-452.46848	-567.22479	535.02686	-459.41852	-526.50928	969.53711	-648.37006	-756.55469	976.24585	-917.81653	-729.59943	501.38187	-913.48358	-765.28461	543.23688	-1010.7387	-655.55151	109.03041	-1093.0978	-697.1366	116.37994	-1179.0432
341	1.695	-496.02832	135.80167	-580.74927	-545.72162	139.37401	-548.71619	-456.1525	579.31769	-450.65143	-565.70978	534.79407	-455.80795	-524.95447	967.98071	-646.66028	-755.69659	975.8338	-915.38745	-729.16705	500.9411	-912.21814	-765.2804	542.78558	-1009.0827	-655.17926	109.58218	-1092.4712	-697.01569	116.60903	-1178.6361
342	1.7	-499.14066	135.63731	-580.46088	-548.10052	139.12804	-547.26318	-454.14627	578.09674	-448.89301	-563.63129	534.51318	-452.56549	-523.45166	966.38715	-644.96057	-754.79016	975.6424	-913.07861	-729.52118	500.1449	-911.13245	-765.3761	542.47583	-1007.4879	-654.99188	109.25687	-1092.2957	-697.05121	116.43929	-1178.0778
343	1.705	-502.00308	135.36537	-579.98035	-550.57428	138.91235	-546.23199	-452.32443	576.74237	-447.17908	-562.67657	533.98767	-448.67813	-521.92743	964.78082	-643.22235	-754.05768	975.18909	-910.55505	-729.66504	499.61728	-908.95135	-765.56311	542.20233	-1005.8187	-654.81702	109.20658	-1091.7943	-696.8551	116.78992	-1177.6534
344	1.71	-504.8511	134.96964	-579.09711	-552.99109	138.66324	-544.98907	-451.06876	575.2157	-445.66522	-561.37677	533.4043	-445.2298	-520.50342	963.11072	-641.41516	-753.34491	974.70221	-907.79297	-729.5907	499.15198	-907.33936	-765.77625	541.78479	-1004.0859	-654.69275	109.12053	-1091.4204	-696.78455	116.90623	-1177.0627
345	1.715	-507.76361	134.57678	-578.19904	-555.60358	138.41963	-543.59369	-449.30588	573.84155	-443.73395	-560.23962	532.70868	-441.89337	-518.95593	961.46973	-639.63715	-752.65338	974.38208	-905.04022	-729.56982	498.18817	-905.59436	-766.13727	541.32281	-1002.1697	-654.45227	109.10519	-1091.0483	-696.43542	117.72356	-1176.6125
346	1.72	-510.84906	134.06213	-576.96564	-558.24988	138.1353	-542.01178	-447.97211	572.35474	-441.86673	-559.31	532.04828	-438.73233	-517.4527	959.75513	-637.74438	-751.87946	973.94165	-902.35034	-730.08765	497.54773	-903.29242	-766.56647	540.85205	-1000.2144	-654.20587	109.11266	-1090.5192	-696.32318	117.99344	-1176.0907
347	1.725	-513.96613	133.63084	-575.74139	-560.95477	137.74319	-540.33612	-447.12967	570.76941	-440.02203	-558.68921	531.2677	-435.47235	-515.65259	958.05157	-635.64563	-751.33374	973.33685	-899.4715	-730.18604	496.63599	-901.37549	-767.0943	540.30261	-998.07855	-653.98077	109.06337	-1090.0162	-696.23413	118.2689	-1175.5297
348	1.73	-517.18054	133.20531	-574.5249	-563.71674	137.29445	-538.6084	-446.16763	569.30011	-437.76932	-558.17188	530.53766	-432.46643	-514.10876	956.44812	-634.12701	-750.78296	972.84772	-896.55878	-730.40002	495.79266	-899.69403	-767.74731	539.69574	-995.81232	-653.68274	109.0192	-1089.4863	-696.05981	118.59521	-1174.839
349	1.735	-520.35614	132.75471	-573.17468	-566.15234	137.049	-536.6485	-445.24817	567.95276	-435.32715	-557.81305	529.83331	-429.53854	-512.51819	954.63715	-632.37585	-750.04736	972.47357	-893.78271	-731.06903	495.47845	-896.36163	-768.42688	539.04688	-993.43158	-653.47009	109.05109	-1089.0295	-695.99475	118.92481	-1174.2572
350	1.74	-523.23071	132.65462	-571.87756	-568.57135	136.83771	-534.76733	-444.55072	566.60516	-432.61835	-557.52264	529.27014	-426.54465	-510.77014	952.7804	-630.58185	-749.69739	971.63525	-890.47382	-731.14417	494.15906	-894.36945	-769.23187	538.3858	-990.89056	-653.32965	109.00555	-1088.5863	-695.98669	119.26106	-1173.6768
351	1.745	-525.66516	132.63472	-570.86359	-570.67072	136.7345	-533.2757	-443.78351	565.43353	-429.74414	-557.18823	528.72449	-423.65201	-509.104	950.91895	-628.84912	-749.31757	970.92401	-886.98993	-731.5816	493.22583	-891.8067	-770.17517	537.64685	-988.18109	-653.14166	109.1911	-1088.0177	-695.96051	119.66747	-1173.1133
352	1.75	-527.78107	132.57683	-569.62921	-572.48328	136.68742	-532.06055	-443.09357	564.28656	-426.76871	-556.75989	528.12396	-420.79559	-507.2807	949.10681	-627.07294	-748.75134	970.28247	-884.05646	-732.14258	492.20303	-889.05249	-771.22589	536.88708	-985.42023	-653.24103	109.21023	-1087.3827	-695.98224	120.28888	-1172.5117
353	1.755	-529.59442	132.43944	-568.29297	-573.87787	136.75264	-531.16937	-442.56906	563.27368	-423.6669	-556.55597	527.67596	-417.57938	-505.53714	947.27753	-625.30243	-748.50604	969.39337	-879.98792	-732.9585	491.44952	-886.03888	-772.38837	536.05609	-982.39984	-653.12823	109.44388	-1086.924	-696.08374	120.76246	-1171.8113
354	1.76	-530.54376	132.87227	-567.83392	-574.87286	136.89484	-530.4834	-442.10965	562.35852	-420.49881	-556.15149	527.01208	-414.73334	-503.74377	945.51477	-623.43292	-747.88165	968.77502	-877.71027	-733.84155	490.31381	-883.04846	-773.66559	535.26013	-979.31012	-653.22656	109.5863	-1086.4265	-696.15906	121.58202	-1171.2539
355	1.765	-531.1991	133.02464	-567.16211	-575.48242	137.00948	-529.94238	-441.91058	561.57318	-417.15613	-556.05994	526.47852	-411.54495	-501.86169	943.83447	-621.48315	-747.5611	968.11816	-873.87067	-734.8667	489.12616	-879.97968	-775.12671	534.50208	-975.96826	-653.33234	109.81725	-1085.8864	-696.56262	121.84951	-1170.3419
356	1.77	-531.2049	133.28194	-566.54285	-575.53955	136.98404	-529.63269	-441.80191	560.82465	-413.76715	-555.91504	525.9314	-408.52301	-499.9747	942.25183	-619.45386	-747.12579	966.83362	-869.78308	-736.16937	487.96643	-876.58978	-776.72736	533.76105	-972.52673	-653.58344	110.28629	-1085.1677	-696.6731	123.1701	-1169.799
357	1.775	-530.53174	133.34549	-566.00653	-575.06726	136.84842	-529.58508	-441.97629	560.06085	-410.40878	-556.08466	525.37292	-405.30072	-498.16464	940.64441	-617.27063	-746.90894	966.23645	-865.99554	-737.73218	486.81931	-872.94678	-778.41852	533.034	-968.79034	-653.78998	111.0196	-1084.3389	-696.77869	124.32743	-1168.8864
358	1.78	-529.13416	133.38979	-565.62933	-573.94214	136.65439	-529.72485	-442.17722	559.23462	-407.0882	-556.20691	524.69611	-402.36481	-495.68207	939.33374	-615.21021	-746.61829	965.45013	-861.44507	-739.48407	485.61069	-869.03528	-780.41632	532.35504	-964.92273	-654.08771	111.9582	-1083.4448	-697.02338	125.60632	-1167.9579
359	1.785	-527.15479	133.40857	-565.34515	-572.46484	136.41487	-530.27728	-442.52631	558.39209	-403.79422	-556.29901	523.99945	-399.53012	-493.57181	938.03082	-612.79913	-745.71301	964.63306	-858.28754	-741.50739	484.55347	-864.82214	-782.58136	531.80731	-960.79333	-654.66144	113.04935	-1082.385	-697.66791	126.58164	-1166.7577
360	1.79	-524.55225	133.37209	-565.14191	-570.31909	136.23608	-530.9762	-442.76834	557.55743	-400.42709	-556.47424	523.09943	-397.00464	-491.28564	936.99963	-610.21027	-745.14697	963.93811	-854.00702	-743.77148	483.58701	-860.18213	-784.81635	531.35913	-956.32477	-655.29749	114.29229	-1081.1191	-697.87567	129.02855	-1165.7186
361	1.795	-521.23492	133.32701	-564.97363	-567.8111	136.09288	-532.00421	-443.46436	556.61163	-397.32224	-556.69635	522.23669	-394.83704	-488.92798	936.18604	-607.57257	-745.05927	963.41034	-847.99237	-746.2832	482.73398	-855.13757	-787.40808	531.05109	-951.4173	-656.04419	116.09406	-1079.7855	-698.4837	131.04564	-1164.0508
362	1.8	-517.52515	133.34128	-564.85547	-564.83539	135.73067	-533.39191	-444.0676	555.62152	-394.04871	-556.87946	521.35364	-393.17514	-486.40225	935.74243	-604.70386	-744.2132	963.24194	-844.13202	-749.16144	482.18933	-849.5744	-790.16937	531.00781	-946.26611	-656.85907	118.08251	-1078.34	-699.28912	133.59155	-1162.5311
363	1.805	-513.43866	133.39436	-564.69025	-561.80792	135.79767	-535.06738	-444.72006	554.68182	-390.75613	-557.19989	520.6394	-391.60541	-483.67889	935.63611	-601.7702	-743.43573	962.49634	-837.888	-752.03168	481.74689	-843.36316	-793.24268	531.16589	-940.58112	-657.89435	120.79343	-1076.5975	-700.07593	136.89647	-1160.7462
